<svg xmlns="http://www.w3.org/2000/svg" xmlns:xlink="http://www.w3.org/1999/xlink" width="500" zoomAndPan="magnify" viewBox="0 0 375 149.999998" height="200" preserveAspectRatio="xMidYMid meet" version="1.0"><defs><g/><clipPath id="4706d0a25c"><path d="M 12.507812 41.714844 L 358.304688 41.714844 L 358.304688 106.519531 L 12.507812 106.519531 Z M 12.507812 41.714844 " clip-rule="nonzero"/></clipPath><clipPath id="cf79805520"><path d="M 19.257812 41.714844 L 351.488281 41.714844 C 353.277344 41.714844 354.996094 42.425781 356.261719 43.691406 C 357.527344 44.957031 358.238281 46.675781 358.238281 48.464844 L 358.238281 99.769531 C 358.238281 101.5625 357.527344 103.277344 356.261719 104.542969 C 354.996094 105.808594 353.277344 106.519531 351.488281 106.519531 L 19.257812 106.519531 C 15.53125 106.519531 12.507812 103.5 12.507812 99.769531 L 12.507812 48.464844 C 12.507812 44.738281 15.53125 41.714844 19.257812 41.714844 Z M 19.257812 41.714844 " clip-rule="nonzero"/></clipPath><clipPath id="93eff3f891"><path d="M 0.507812 0.714844 L 346.304688 0.714844 L 346.304688 65.519531 L 0.507812 65.519531 Z M 0.507812 0.714844 " clip-rule="nonzero"/></clipPath><clipPath id="8e452ab6f1"><path d="M 7.257812 0.714844 L 339.488281 0.714844 C 341.277344 0.714844 342.996094 1.425781 344.261719 2.691406 C 345.527344 3.957031 346.238281 5.675781 346.238281 7.464844 L 346.238281 58.769531 C 346.238281 60.5625 345.527344 62.277344 344.261719 63.542969 C 342.996094 64.808594 341.277344 65.519531 339.488281 65.519531 L 7.257812 65.519531 C 3.53125 65.519531 0.507812 62.5 0.507812 58.769531 L 0.507812 7.464844 C 0.507812 3.738281 3.53125 0.714844 7.257812 0.714844 Z M 7.257812 0.714844 " clip-rule="nonzero"/></clipPath><clipPath id="7ec009c885"><rect x="0" width="347" y="0" height="66"/></clipPath><clipPath id="b42b4a8093"><rect x="0" width="125" y="0" height="40"/></clipPath></defs><g clip-path="url(#4706d0a25c)"><g clip-path="url(#cf79805520)"><g transform="matrix(1, 0, 0, 1, 12, 41)"><g clip-path="url(#7ec009c885)"><g clip-path="url(#93eff3f891)"><g clip-path="url(#8e452ab6f1)"><path fill="#ff5a5f" d="M 0.507812 0.714844 L 346.304688 0.714844 L 346.304688 65.519531 L 0.507812 65.519531 Z M 0.507812 0.714844 " fill-opacity="1" fill-rule="nonzero"/></g></g></g></g></g></g><path fill="#ffffff" d="M 258.160156 62.613281 C 258.160156 64.359375 256.753906 65.765625 255.007812 65.765625 C 253.261719 65.765625 251.851562 64.359375 251.851562 62.613281 C 251.851562 60.863281 253.210938 59.457031 255.007812 59.457031 C 256.804688 59.507812 258.160156 60.914062 258.160156 62.613281 Z M 245.15625 68.96875 L 245.15625 69.746094 C 245.15625 69.746094 243.652344 67.804688 240.449219 67.804688 C 235.160156 67.804688 231.035156 71.832031 231.035156 77.414062 C 231.035156 82.945312 235.109375 87.023438 240.449219 87.023438 C 243.699219 87.023438 245.15625 85.03125 245.15625 85.03125 L 245.15625 85.855469 C 245.15625 86.246094 245.445312 86.535156 245.835938 86.535156 L 249.765625 86.535156 L 249.765625 68.289062 L 245.835938 68.289062 C 245.445312 68.289062 245.15625 68.628906 245.15625 68.96875 Z M 245.15625 80.664062 C 244.429688 81.730469 242.972656 82.652344 241.226562 82.652344 C 238.121094 82.652344 235.742188 80.714844 235.742188 77.414062 C 235.742188 74.113281 238.121094 72.171875 241.226562 72.171875 C 242.921875 72.171875 244.476562 73.140625 245.15625 74.160156 Z M 252.679688 68.289062 L 257.335938 68.289062 L 257.335938 86.535156 L 252.679688 86.535156 Z M 322.269531 67.804688 C 319.066406 67.804688 317.5625 69.746094 317.5625 69.746094 L 317.5625 59.507812 L 312.902344 59.507812 L 312.902344 86.535156 L 316.832031 86.535156 C 317.222656 86.535156 317.511719 86.195312 317.511719 85.855469 L 317.511719 85.03125 C 317.511719 85.03125 319.015625 87.023438 322.21875 87.023438 C 327.507812 87.023438 331.632812 82.945312 331.632812 77.414062 C 331.632812 71.878906 327.507812 67.804688 322.269531 67.804688 Z M 321.492188 82.605469 C 319.695312 82.605469 318.289062 81.683594 317.5625 80.617188 L 317.5625 74.113281 C 318.289062 73.140625 319.84375 72.125 321.492188 72.125 C 324.597656 72.125 326.976562 74.066406 326.976562 77.363281 C 326.976562 80.664062 324.597656 82.605469 321.492188 82.605469 Z M 310.476562 75.714844 L 310.476562 86.585938 L 305.816406 86.585938 L 305.816406 76.25 C 305.816406 73.238281 304.847656 72.027344 302.226562 72.027344 C 300.820312 72.027344 299.363281 72.753906 298.441406 73.820312 L 298.441406 86.535156 L 293.78125 86.535156 L 293.78125 68.289062 L 297.46875 68.289062 C 297.859375 68.289062 298.148438 68.628906 298.148438 68.96875 L 298.148438 69.746094 C 299.507812 68.339844 301.304688 67.804688 303.101562 67.804688 C 305.136719 67.804688 306.835938 68.386719 308.195312 69.550781 C 309.84375 70.910156 310.476562 72.65625 310.476562 75.714844 Z M 282.476562 67.804688 C 279.273438 67.804688 277.765625 69.746094 277.765625 69.746094 L 277.765625 59.507812 L 273.109375 59.507812 L 273.109375 86.535156 L 277.039062 86.535156 C 277.429688 86.535156 277.71875 86.195312 277.71875 85.855469 L 277.71875 85.03125 C 277.71875 85.03125 279.222656 87.023438 282.425781 87.023438 C 287.714844 87.023438 291.839844 82.945312 291.839844 77.414062 C 291.890625 71.878906 287.765625 67.804688 282.476562 67.804688 Z M 281.699219 82.605469 C 279.902344 82.605469 278.496094 81.683594 277.765625 80.617188 L 277.765625 74.113281 C 278.496094 73.140625 280.046875 72.125 281.699219 72.125 C 284.804688 72.125 287.183594 74.066406 287.183594 77.363281 C 287.183594 80.664062 284.804688 82.605469 281.699219 82.605469 Z M 269.082031 67.804688 C 270.488281 67.804688 271.214844 68.046875 271.214844 68.046875 L 271.214844 72.367188 C 271.214844 72.367188 267.332031 71.054688 264.90625 73.820312 L 264.90625 86.585938 L 260.25 86.585938 L 260.25 68.289062 L 264.179688 68.289062 C 264.566406 68.289062 264.859375 68.628906 264.859375 68.96875 L 264.859375 69.746094 C 265.730469 68.726562 267.625 67.804688 269.082031 67.804688 Z M 220.699219 84.886719 C 220.453125 84.304688 220.210938 83.671875 219.96875 83.140625 C 219.582031 82.265625 219.191406 81.441406 218.851562 80.664062 L 218.804688 80.617188 C 215.457031 73.335938 211.863281 65.960938 208.078125 58.679688 L 207.933594 58.390625 C 207.546875 57.660156 207.15625 56.886719 206.769531 56.109375 C 206.285156 55.234375 205.800781 54.3125 205.023438 53.441406 C 203.46875 51.5 201.238281 50.429688 198.859375 50.429688 C 196.433594 50.429688 194.25 51.5 192.648438 53.34375 C 191.917969 54.214844 191.386719 55.136719 190.902344 56.011719 C 190.511719 56.789062 190.125 57.566406 189.734375 58.292969 L 189.589844 58.582031 C 185.851562 65.863281 182.214844 73.238281 178.867188 80.519531 L 178.816406 80.617188 C 178.476562 81.390625 178.089844 82.21875 177.699219 83.089844 C 177.457031 83.625 177.214844 84.207031 176.972656 84.839844 C 176.339844 86.632812 176.148438 88.332031 176.390625 90.078125 C 176.925781 93.71875 179.351562 96.777344 182.699219 98.136719 C 183.960938 98.667969 185.269531 98.910156 186.628906 98.910156 C 187.019531 98.910156 187.503906 98.863281 187.890625 98.8125 C 189.492188 98.621094 191.144531 98.085938 192.746094 97.164062 C 194.734375 96.046875 196.625 94.445312 198.761719 92.117188 C 200.898438 94.445312 202.839844 96.046875 204.78125 97.164062 C 206.382812 98.085938 208.03125 98.621094 209.632812 98.8125 C 210.019531 98.863281 210.507812 98.910156 210.894531 98.910156 C 212.253906 98.910156 213.613281 98.667969 214.824219 98.136719 C 218.222656 96.777344 220.601562 93.671875 221.132812 90.078125 C 221.523438 88.378906 221.328125 86.683594 220.699219 84.886719 Z M 198.8125 87.410156 C 196.191406 84.109375 194.492188 81.003906 193.910156 78.382812 C 193.667969 77.265625 193.617188 76.296875 193.765625 75.421875 C 193.859375 74.648438 194.152344 73.96875 194.539062 73.386719 C 195.460938 72.074219 197.015625 71.25 198.8125 71.25 C 200.605469 71.25 202.207031 72.027344 203.082031 73.386719 C 203.46875 73.96875 203.761719 74.648438 203.859375 75.421875 C 204.003906 76.296875 203.953125 77.316406 203.710938 78.382812 C 203.128906 80.957031 201.429688 84.0625 198.8125 87.410156 Z M 218.171875 89.691406 C 217.835938 92.214844 216.136719 94.398438 213.757812 95.367188 C 212.59375 95.855469 211.332031 96 210.070312 95.855469 C 208.855469 95.707031 207.644531 95.320312 206.382812 94.59375 C 204.632812 93.621094 202.886719 92.117188 200.847656 89.886719 C 204.050781 85.953125 205.992188 82.363281 206.722656 79.160156 C 207.0625 77.65625 207.109375 76.296875 206.964844 75.035156 C 206.769531 73.820312 206.332031 72.707031 205.652344 71.734375 C 204.148438 69.550781 201.625 68.289062 198.8125 68.289062 C 195.996094 68.289062 193.472656 69.601562 191.96875 71.734375 C 191.289062 72.707031 190.851562 73.820312 190.65625 75.035156 C 190.464844 76.296875 190.511719 77.703125 190.902344 79.160156 C 191.628906 82.363281 193.617188 86.003906 196.773438 89.933594 C 194.78125 92.164062 192.988281 93.671875 191.238281 94.640625 C 189.976562 95.367188 188.765625 95.757812 187.550781 95.902344 C 186.242188 96.046875 184.980469 95.855469 183.863281 95.417969 C 181.484375 94.445312 179.789062 92.261719 179.449219 89.738281 C 179.300781 88.527344 179.398438 87.3125 179.882812 85.953125 C 180.03125 85.46875 180.273438 84.984375 180.515625 84.402344 C 180.855469 83.625 181.242188 82.800781 181.632812 81.976562 L 181.679688 81.878906 C 185.027344 74.648438 188.621094 67.269531 192.355469 60.089844 L 192.503906 59.796875 C 192.890625 59.070312 193.277344 58.292969 193.667969 57.566406 C 194.054688 56.789062 194.492188 56.058594 195.027344 55.429688 C 196.042969 54.265625 197.402344 53.632812 198.90625 53.632812 C 200.414062 53.632812 201.769531 54.265625 202.789062 55.429688 C 203.324219 56.058594 203.761719 56.789062 204.148438 57.566406 C 204.539062 58.292969 204.925781 59.070312 205.3125 59.796875 L 205.460938 60.089844 C 209.148438 67.320312 212.738281 74.695312 216.085938 81.925781 L 216.085938 81.976562 C 216.476562 82.75 216.816406 83.625 217.203125 84.402344 C 217.445312 84.984375 217.6875 85.46875 217.835938 85.953125 C 218.222656 87.214844 218.367188 88.429688 218.171875 89.691406 Z M 218.171875 89.691406 " fill-opacity="1" fill-rule="nonzero"/><g transform="matrix(1, 0, 0, 1, 43, 55)"><g clip-path="url(#b42b4a8093)"><g fill="#ffffff" fill-opacity="1"><g transform="translate(0.873503, 31.467118)"><g><path d="M 23.40625 -6.78125 C 23.40625 -4.625 22.59375 -2.953125 20.96875 -1.765625 C 19.34375 -0.585938 17.09375 0 14.21875 0 L 2.3125 0 L 2.3125 -23.796875 L 13.203125 -23.796875 C 16.109375 -23.796875 18.304688 -23.289062 19.796875 -22.28125 C 21.285156 -21.269531 22.03125 -19.78125 22.03125 -17.8125 C 22.03125 -16.457031 21.65625 -15.316406 20.90625 -14.390625 C 20.15625 -13.460938 19.015625 -12.835938 17.484375 -12.515625 C 19.410156 -12.285156 20.878906 -11.675781 21.890625 -10.6875 C 22.898438 -9.707031 23.40625 -8.40625 23.40625 -6.78125 Z M 17.015625 -17.140625 C 17.015625 -18.203125 16.671875 -18.957031 15.984375 -19.40625 C 15.304688 -19.863281 14.300781 -20.09375 12.96875 -20.09375 L 7.296875 -20.09375 L 7.296875 -14.203125 L 13 -14.203125 C 14.40625 -14.203125 15.425781 -14.445312 16.0625 -14.9375 C 16.695312 -15.425781 17.015625 -16.160156 17.015625 -17.140625 Z M 18.40625 -7.171875 C 18.40625 -9.398438 16.804688 -10.515625 13.609375 -10.515625 L 7.296875 -10.515625 L 7.296875 -3.703125 L 13.796875 -3.703125 C 15.390625 -3.703125 16.554688 -3.988281 17.296875 -4.5625 C 18.035156 -5.144531 18.40625 -6.015625 18.40625 -7.171875 Z M 18.40625 -7.171875 "/></g></g></g><g fill="#ffffff" fill-opacity="1"><g transform="translate(23.491815, 31.467118)"><g><path d="M 19.765625 -9.15625 C 19.765625 -6.1875 18.941406 -3.859375 17.296875 -2.171875 C 15.660156 -0.492188 13.390625 0.34375 10.484375 0.34375 C 7.640625 0.34375 5.40625 -0.5 3.78125 -2.1875 C 2.15625 -3.882812 1.34375 -6.207031 1.34375 -9.15625 C 1.34375 -12.09375 2.15625 -14.398438 3.78125 -16.078125 C 5.40625 -17.765625 7.675781 -18.609375 10.59375 -18.609375 C 13.570312 -18.609375 15.84375 -17.796875 17.40625 -16.171875 C 18.976562 -14.546875 19.765625 -12.207031 19.765625 -9.15625 Z M 14.8125 -9.15625 C 14.8125 -11.320312 14.457031 -12.894531 13.75 -13.875 C 13.039062 -14.851562 12.007812 -15.34375 10.65625 -15.34375 C 7.769531 -15.34375 6.328125 -13.28125 6.328125 -9.15625 C 6.328125 -7.113281 6.675781 -5.5625 7.375 -4.5 C 8.082031 -3.4375 9.101562 -2.90625 10.4375 -2.90625 C 13.351562 -2.90625 14.8125 -4.988281 14.8125 -9.15625 Z M 14.8125 -9.15625 "/></g></g></g><g fill="#ffffff" fill-opacity="1"><g transform="translate(42.26085, 31.467118)"><g><path d="M 19.765625 -9.15625 C 19.765625 -6.1875 18.941406 -3.859375 17.296875 -2.171875 C 15.660156 -0.492188 13.390625 0.34375 10.484375 0.34375 C 7.640625 0.34375 5.40625 -0.5 3.78125 -2.1875 C 2.15625 -3.882812 1.34375 -6.207031 1.34375 -9.15625 C 1.34375 -12.09375 2.15625 -14.398438 3.78125 -16.078125 C 5.40625 -17.765625 7.675781 -18.609375 10.59375 -18.609375 C 13.570312 -18.609375 15.84375 -17.796875 17.40625 -16.171875 C 18.976562 -14.546875 19.765625 -12.207031 19.765625 -9.15625 Z M 14.8125 -9.15625 C 14.8125 -11.320312 14.457031 -12.894531 13.75 -13.875 C 13.039062 -14.851562 12.007812 -15.34375 10.65625 -15.34375 C 7.769531 -15.34375 6.328125 -13.28125 6.328125 -9.15625 C 6.328125 -7.113281 6.675781 -5.5625 7.375 -4.5 C 8.082031 -3.4375 9.101562 -2.90625 10.4375 -2.90625 C 13.351562 -2.90625 14.8125 -4.988281 14.8125 -9.15625 Z M 14.8125 -9.15625 "/></g></g></g><g fill="#ffffff" fill-opacity="1"><g transform="translate(61.029884, 31.467118)"><g><path d="M 14.078125 0 L 9.203125 -8.265625 L 7.15625 -6.859375 L 7.15625 0 L 2.421875 0 L 2.421875 -25.0625 L 7.15625 -25.0625 L 7.15625 -10.703125 L 13.671875 -18.265625 L 18.78125 -18.265625 L 12.359375 -11.140625 L 19.265625 0 Z M 14.078125 0 "/></g></g></g><g fill="#ffffff" fill-opacity="1"><g transform="translate(77.908046, 31.467118)"><g/></g></g><g fill="#ffffff" fill-opacity="1"><g transform="translate(85.163011, 31.467118)"><g><path d="M 19.765625 -9.15625 C 19.765625 -6.1875 18.941406 -3.859375 17.296875 -2.171875 C 15.660156 -0.492188 13.390625 0.34375 10.484375 0.34375 C 7.640625 0.34375 5.40625 -0.5 3.78125 -2.1875 C 2.15625 -3.882812 1.34375 -6.207031 1.34375 -9.15625 C 1.34375 -12.09375 2.15625 -14.398438 3.78125 -16.078125 C 5.40625 -17.765625 7.675781 -18.609375 10.59375 -18.609375 C 13.570312 -18.609375 15.84375 -17.796875 17.40625 -16.171875 C 18.976562 -14.546875 19.765625 -12.207031 19.765625 -9.15625 Z M 14.8125 -9.15625 C 14.8125 -11.320312 14.457031 -12.894531 13.75 -13.875 C 13.039062 -14.851562 12.007812 -15.34375 10.65625 -15.34375 C 7.769531 -15.34375 6.328125 -13.28125 6.328125 -9.15625 C 6.328125 -7.113281 6.675781 -5.5625 7.375 -4.5 C 8.082031 -3.4375 9.101562 -2.90625 10.4375 -2.90625 C 13.351562 -2.90625 14.8125 -4.988281 14.8125 -9.15625 Z M 14.8125 -9.15625 "/></g></g></g><g fill="#ffffff" fill-opacity="1"><g transform="translate(103.932045, 31.467118)"><g><path d="M 14.25 0 L 14.25 -10.25 C 14.25 -13.457031 13.160156 -15.0625 10.984375 -15.0625 C 9.835938 -15.0625 8.910156 -14.566406 8.203125 -13.578125 C 7.503906 -12.597656 7.15625 -11.335938 7.15625 -9.796875 L 7.15625 0 L 2.421875 0 L 2.421875 -14.1875 C 2.421875 -15.164062 2.40625 -15.96875 2.375 -16.59375 C 2.34375 -17.21875 2.3125 -17.773438 2.28125 -18.265625 L 6.796875 -18.265625 C 6.835938 -18.054688 6.882812 -17.484375 6.9375 -16.546875 C 7 -15.617188 7.03125 -14.984375 7.03125 -14.640625 L 7.09375 -14.640625 C 7.726562 -16.035156 8.53125 -17.046875 9.5 -17.671875 C 10.46875 -18.304688 11.625 -18.625 12.96875 -18.625 C 14.90625 -18.625 16.390625 -18.023438 17.421875 -16.828125 C 18.460938 -15.640625 18.984375 -13.894531 18.984375 -11.59375 L 18.984375 0 Z M 14.25 0 "/></g></g></g></g></g></svg>